<mxfile host="app.diagrams.net" modified="2020-11-02T12:40:06.795Z" agent="5.0 (Macintosh; Intel Mac OS X 10_14_6) AppleWebKit/537.36 (KHTML, like Gecko) Chrome/86.0.4240.111 Safari/537.36" etag="1VOflWECBAt3z0aRXDEi" version="13.8.8" type="github">
  <diagram id="XCPZMHj8SuXuo62oUey4" name="第 1 页">
    <mxGraphModel dx="807" dy="1685" grid="1" gridSize="10" guides="1" tooltips="1" connect="1" arrows="1" fold="1" page="1" pageScale="1" pageWidth="827" pageHeight="1169" math="0" shadow="0">
      <root>
        <mxCell id="0" />
        <mxCell id="1" parent="0" />
        <mxCell id="39Lvq84c3H4vdwFl3TJd-17" value="" style="edgeStyle=orthogonalEdgeStyle;rounded=0;orthogonalLoop=1;jettySize=auto;html=1;" edge="1" parent="1" source="39Lvq84c3H4vdwFl3TJd-1" target="39Lvq84c3H4vdwFl3TJd-18">
          <mxGeometry relative="1" as="geometry">
            <mxPoint x="350" y="-10" as="targetPoint" />
          </mxGeometry>
        </mxCell>
        <mxCell id="39Lvq84c3H4vdwFl3TJd-1" value="开始" style="strokeWidth=2;html=1;shape=mxgraph.flowchart.start_1;whiteSpace=wrap;" vertex="1" parent="1">
          <mxGeometry x="300" y="-100" width="100" height="60" as="geometry" />
        </mxCell>
        <mxCell id="39Lvq84c3H4vdwFl3TJd-5" value="" style="edgeStyle=orthogonalEdgeStyle;rounded=0;orthogonalLoop=1;jettySize=auto;html=1;" edge="1" parent="1" source="39Lvq84c3H4vdwFl3TJd-2" target="39Lvq84c3H4vdwFl3TJd-4">
          <mxGeometry relative="1" as="geometry" />
        </mxCell>
        <mxCell id="39Lvq84c3H4vdwFl3TJd-2" value="商户校验，黑名单校验，产品校验" style="whiteSpace=wrap;html=1;strokeWidth=2;" vertex="1" parent="1">
          <mxGeometry x="290" y="130" width="120" height="60" as="geometry" />
        </mxCell>
        <mxCell id="39Lvq84c3H4vdwFl3TJd-8" value="" style="edgeStyle=orthogonalEdgeStyle;rounded=0;orthogonalLoop=1;jettySize=auto;html=1;" edge="1" parent="1" source="39Lvq84c3H4vdwFl3TJd-4" target="39Lvq84c3H4vdwFl3TJd-7">
          <mxGeometry relative="1" as="geometry" />
        </mxCell>
        <mxCell id="39Lvq84c3H4vdwFl3TJd-4" value="注册商户" style="whiteSpace=wrap;html=1;strokeWidth=2;" vertex="1" parent="1">
          <mxGeometry x="290" y="240" width="120" height="60" as="geometry" />
        </mxCell>
        <mxCell id="39Lvq84c3H4vdwFl3TJd-10" value="" style="edgeStyle=orthogonalEdgeStyle;rounded=0;orthogonalLoop=1;jettySize=auto;html=1;" edge="1" parent="1" source="39Lvq84c3H4vdwFl3TJd-7" target="39Lvq84c3H4vdwFl3TJd-9">
          <mxGeometry relative="1" as="geometry" />
        </mxCell>
        <mxCell id="39Lvq84c3H4vdwFl3TJd-7" value="生成工单号" style="whiteSpace=wrap;html=1;strokeWidth=2;" vertex="1" parent="1">
          <mxGeometry x="290" y="340" width="120" height="60" as="geometry" />
        </mxCell>
        <mxCell id="39Lvq84c3H4vdwFl3TJd-12" value="" style="edgeStyle=orthogonalEdgeStyle;rounded=0;orthogonalLoop=1;jettySize=auto;html=1;" edge="1" parent="1" source="39Lvq84c3H4vdwFl3TJd-9" target="39Lvq84c3H4vdwFl3TJd-11">
          <mxGeometry relative="1" as="geometry" />
        </mxCell>
        <mxCell id="39Lvq84c3H4vdwFl3TJd-9" value="申请工单" style="whiteSpace=wrap;html=1;strokeWidth=2;" vertex="1" parent="1">
          <mxGeometry x="290" y="430" width="120" height="60" as="geometry" />
        </mxCell>
        <mxCell id="39Lvq84c3H4vdwFl3TJd-11" value="结束" style="ellipse;whiteSpace=wrap;html=1;strokeWidth=2;" vertex="1" parent="1">
          <mxGeometry x="290" y="530" width="120" height="80" as="geometry" />
        </mxCell>
        <mxCell id="39Lvq84c3H4vdwFl3TJd-19" value="" style="edgeStyle=orthogonalEdgeStyle;rounded=0;orthogonalLoop=1;jettySize=auto;html=1;" edge="1" parent="1" source="39Lvq84c3H4vdwFl3TJd-18" target="39Lvq84c3H4vdwFl3TJd-2">
          <mxGeometry relative="1" as="geometry" />
        </mxCell>
        <mxCell id="39Lvq84c3H4vdwFl3TJd-20" value="否" style="edgeLabel;html=1;align=center;verticalAlign=middle;resizable=0;points=[];" vertex="1" connectable="0" parent="39Lvq84c3H4vdwFl3TJd-19">
          <mxGeometry x="-0.0286" y="-2" relative="1" as="geometry">
            <mxPoint as="offset" />
          </mxGeometry>
        </mxCell>
        <mxCell id="39Lvq84c3H4vdwFl3TJd-22" value="" style="edgeStyle=orthogonalEdgeStyle;rounded=0;orthogonalLoop=1;jettySize=auto;html=1;" edge="1" parent="1" source="39Lvq84c3H4vdwFl3TJd-18" target="39Lvq84c3H4vdwFl3TJd-25">
          <mxGeometry relative="1" as="geometry">
            <mxPoint x="510" y="45" as="targetPoint" />
          </mxGeometry>
        </mxCell>
        <mxCell id="39Lvq84c3H4vdwFl3TJd-23" value="是" style="edgeLabel;html=1;align=center;verticalAlign=middle;resizable=0;points=[];" vertex="1" connectable="0" parent="39Lvq84c3H4vdwFl3TJd-22">
          <mxGeometry x="0.0444" y="-1" relative="1" as="geometry">
            <mxPoint as="offset" />
          </mxGeometry>
        </mxCell>
        <mxCell id="39Lvq84c3H4vdwFl3TJd-18" value="根据请求号查询入网记录是否存在" style="strokeWidth=2;html=1;shape=mxgraph.flowchart.decision;whiteSpace=wrap;" vertex="1" parent="1">
          <mxGeometry x="280" y="10" width="140" height="70" as="geometry" />
        </mxCell>
        <mxCell id="39Lvq84c3H4vdwFl3TJd-24" value="对于同一个工单号的申请，&lt;br&gt;需要工单服务支持幂等修改" style="strokeWidth=2;html=1;shape=mxgraph.flowchart.annotation_1;align=left;pointerEvents=1;" vertex="1" parent="1">
          <mxGeometry x="440" y="-105" width="70" height="70" as="geometry" />
        </mxCell>
        <mxCell id="39Lvq84c3H4vdwFl3TJd-26" style="edgeStyle=orthogonalEdgeStyle;rounded=0;orthogonalLoop=1;jettySize=auto;html=1;exitX=0.5;exitY=1;exitDx=0;exitDy=0;exitPerimeter=0;entryX=0;entryY=0.5;entryDx=0;entryDy=0;" edge="1" parent="1" source="39Lvq84c3H4vdwFl3TJd-25" target="39Lvq84c3H4vdwFl3TJd-2">
          <mxGeometry relative="1" as="geometry" />
        </mxCell>
        <mxCell id="39Lvq84c3H4vdwFl3TJd-27" value="是" style="edgeLabel;html=1;align=center;verticalAlign=middle;resizable=0;points=[];" vertex="1" connectable="0" parent="39Lvq84c3H4vdwFl3TJd-26">
          <mxGeometry x="-0.4077" y="46" relative="1" as="geometry">
            <mxPoint as="offset" />
          </mxGeometry>
        </mxCell>
        <mxCell id="39Lvq84c3H4vdwFl3TJd-28" style="edgeStyle=orthogonalEdgeStyle;rounded=0;orthogonalLoop=1;jettySize=auto;html=1;exitX=0;exitY=0.5;exitDx=0;exitDy=0;exitPerimeter=0;entryX=0;entryY=0.5;entryDx=0;entryDy=0;" edge="1" parent="1" source="39Lvq84c3H4vdwFl3TJd-25" target="39Lvq84c3H4vdwFl3TJd-11">
          <mxGeometry relative="1" as="geometry" />
        </mxCell>
        <mxCell id="39Lvq84c3H4vdwFl3TJd-29" value="否" style="edgeLabel;html=1;align=center;verticalAlign=middle;resizable=0;points=[];" vertex="1" connectable="0" parent="39Lvq84c3H4vdwFl3TJd-28">
          <mxGeometry x="-0.4662" y="2" relative="1" as="geometry">
            <mxPoint as="offset" />
          </mxGeometry>
        </mxCell>
        <mxCell id="39Lvq84c3H4vdwFl3TJd-25" value="申请状态是否为“申请已驳回”" style="strokeWidth=2;html=1;shape=mxgraph.flowchart.decision;whiteSpace=wrap;" vertex="1" parent="1">
          <mxGeometry x="60" y="15" width="140" height="65" as="geometry" />
        </mxCell>
        <mxCell id="39Lvq84c3H4vdwFl3TJd-30" value="此处若发生并发，无法防住" style="strokeWidth=2;html=1;shape=mxgraph.flowchart.annotation_2;align=left;labelPosition=right;pointerEvents=1;" vertex="1" parent="1">
          <mxGeometry x="414" y="220" width="50" height="100" as="geometry" />
        </mxCell>
      </root>
    </mxGraphModel>
  </diagram>
</mxfile>
